PathFileType	4	(X/Y/Z)	T1_P2_Vision_Movement_0_0-735.trc
DataRate	CameraRate	NumFrames	NumMarkers	Units	OrigDataRate	OrigDataStartFrame	OrigNumFrames
60	60	7	27	m	60	183	735
Frame#	Time	RHip			RKnee			RAnkle			RBigToe			RSmallToe			RHeel			LHip			LKnee			LAnkle			LBigToe			LSmallToe			LHeel			Neck			Head			Nose			RShoulder			RElbow			RWrist			RThumb			RIndex			RPinky			LShoulder			LElbow			LWrist			LThumb			LIndex			LPinky		
		X1	Y1	Z1	X2	Y2	Z2	X3	Y3	Z3	X4	Y4	Z4	X5	Y5	Z5	X6	Y6	Z6	X7	Y7	Z7	X8	Y8	Z8	X9	Y9	Z9	X10	Y10	Z10	X11	Y11	Z11	X12	Y12	Z12	X13	Y13	Z13	X14	Y14	Z14	X15	Y15	Z15	X16	Y16	Z16	X17	Y17	Z17	X18	Y18	Z18	X19	Y19	Z19	X20	Y20	Z20	X21	Y21	Z21	X22	Y22	Z22	X23	Y23	Z23	X24	Y24	Z24	X25	Y25	Z25	X26	Y26	Z26	X27	Y27	Z27
184	3.066666666666667	457.297025234774	3623.2663916573324	643.3540818192905	836.769605456509	3689.241591553584	646.3200697937748	1219.8236424188783	3741.1175863396356	700.8453046569125	1281.747375995455	3619.1126309645406	641.4533088068549	1280.8791378747958	3668.538325334888	602.7464871091804	1295.7384048699419	3818.7737908175186	760.3818752973251	486.67462472209894	3575.003337597305	846.9169451954378	862.0797397650236	3570.1712020389623	841.4725645323613	1237.0517220454115	3673.0229332095405	851.7108260589191	1310.5893356568827	3540.537428237791	803.9233374550025	1298.3003942332937	3536.543369610682	847.0941161037119	1283.9338146954003	3715.6408197231767	858.963094622008	-119.55424482602359	3552.129509191697	755.365552732365	-371.04580102008583	3482.949014874496	734.7607709602081	-231.32792718812368	3443.6911066849875	719.8418818016568	-38.61736887095195	3696.8575866433807	633.5549184802238	175.86427480797204	3743.5868511811213	545.0068845110983	291.93623396054966	3495.0325915196786	496.3088409555241	370.9531375184748	3373.0356458419565	540.2940139522644	383.67026746286973	3368.343760916682	525.2350471686663	406.8295301040938	3450.914850311986	483.04107189387753	-14.836861072135118	3494.926145431976	897.7665939171071	248.5636709171298	3528.9850289278834	955.8942132179125	497.35872066842757	3500.4169361647855	951.2026236418571	597.8633430986426	3491.408393566156	899.7271020005757	606.4207453415295	3403.918674751545	891.244146758027	606.063717822125	3389.623818301475	924.2612427229022
185	3.083333333333333	454.90613044935213	3623.0704235218845	643.63146155641	839.1951219089678	3690.48090732055	646.0614339836978	1220.6667526524286	3742.7903973079337	702.2030227366481	1281.227700327871	3618.6344101544737	641.2446744509773	1279.6350894678808	3668.1813024267876	601.6981466106939	1296.0914129774874	3820.395832031778	759.8300765943309	486.4513085886	3570.3682980094786	844.3959252440925	863.4884457491008	3571.627611841406	842.2805305714044	1237.0437396006807	3672.957037865488	851.677985421855	1310.1824844329913	3541.033105001726	804.2272941480023	1297.949679285577	3536.693372473527	845.7897341343288	1283.399055781466	3712.978523344903	858.0695516204833	-119.69685152977985	3548.9231549419123	751.2205420664261	-371.0608376018223	3483.097770418779	734.7910709700991	-231.32445702061807	3444.3881130490486	718.7927050069098	-38.619585244645435	3696.868840106317	632.9633138730269	176.3630441511288	3744.5284315468325	545.4927198704893	286.7543102557769	3489.0272414911815	496.1692181264786	360.5501724949107	3376.8219074604067	549.3199084091319	373.8282317231105	3368.280408798824	535.9349637295554	399.99024822770605	3452.3456125405755	489.9052496306866	-15.051775808370575	3493.0983762950227	894.8425091048183	249.23960757879365	3529.124841964995	955.897899695164	498.2463282138439	3505.686562248	953.7021047289325	597.8214612553896	3491.053706612447	899.5212785629847	606.6232031233477	3404.3332125401666	891.3110987877972	607.0973911189077	3394.7974605923764	926.0784805866281
186	3.1	451.667384866558	3623.220455274927	644.0947817939569	841.8339647775575	3691.1405161543507	646.8554903309578	1222.234754489239	3745.4119683078775	704.3339308665238	1280.9469237446008	3618.218351347866	641.021253701879	1278.8544977245424	3669.2118729259396	601.8965673334607	1294.5563898534733	3820.119022793987	758.4373177353858	485.8285567561896	3568.2513348222456	843.151547256023	862.3472202444739	3572.930966628299	843.1621362441572	1237.031298943625	3672.9371482986217	851.6657651235797	1309.3548499372787	3542.7580187241397	805.2015182780204	1297.7546788566149	3537.070089149534	844.4797888426094	1282.515544566283	3712.1816366036333	857.848522264512	-119.86470989993846	3550.7685617621055	748.877477588096	-371.2297615263999	3485.28523403464	735.417986099544	-231.3495274876239	3444.7204903911834	718.3859787242823	-38.773669628162516	3697.2384871349914	631.8316485927692	177.33028261321806	3744.5168659581354	545.525746209903	281.88701118341055	3485.248353920545	495.5273626587341	347.9923681691319	3375.809945784636	553.7861280234438	362.307613254592	3368.1618206756402	543.791512435572	393.0826550215149	3447.9941805011904	495.1323321454855	-15.224902414005804	3494.754114633438	894.3186732709427	248.9469911194293	3528.6390737729935	955.5918341271083	499.4301901270693	3513.149829655332	956.3607169803388	598.6232080653476	3491.584364427315	899.6542506558019	607.2635525034775	3406.9203462865166	892.2294531029535	608.4756835156142	3401.667842134322	928.5670274177658
187	3.1166666666666667	448.7976384671282	3623.923604827865	644.7340252611796	844.0756106561498	3691.1414462441335	648.1653691996348	1223.716441114977	3747.2926593684188	705.8784026009293	1280.822560370927	3617.9820484705506	640.8620792611766	1278.6298972088746	3669.877432935602	602.3033799396944	1292.417898194087	3818.2517223732934	757.7137104341422	484.8554796760236	3570.378441495436	843.2137369680678	859.9262793841099	3573.9870445865517	843.9828193770866	1237.0263239654362	3672.941592865538	851.6681619317812	1308.6755648046847	3544.459595530488	806.1243941588075	1297.8044046690784	3537.384980831495	843.8995174868302	1281.2219621608956	3712.2437361333014	858.0327438505743	-120.03096950805795	3557.4936885681564	748.7275529920075	-371.63595879271395	3490.631933874	737.0137363235672	-231.38226140371526	3444.8230442341182	718.4016673384683	-39.08608486526859	3697.917648989881	630.8673140749756	177.87169420212788	3744.418409805279	544.979625355588	276.76964824242697	3484.2212016450903	495.3657662906492	334.08941549161426	3371.8456995201173	555.3710162460579	348.7533405447973	3364.586119416529	547.7868882659201	384.95709339619634	3438.1749725196046	499.9937782270035	-15.573341336445319	3499.2021050567473	895.8205783863432	247.93136644266943	3527.7320800868038	955.0769116212705	500.3332948347025	3519.250247301922	958.0833604440793	600.4533285337028	3495.189026727117	901.3727736894497	608.5399767229359	3412.8723412831773	894.5391998157149	609.544584668557	3406.936850546666	930.5590444732185
188	3.1333333333333333	446.7661062923438	3625.3373174629487	645.5935518683143	844.8888091473932	3690.5797964617927	649.4190521775517	1224.313694331403	3747.8784560339113	706.380497013008	1281.0338529469313	3618.420592461743	641.1967842176066	1278.8171402991318	3669.4729717729347	602.2354224219168	1291.317706267668	3815.578286278101	758.0288915115302	483.09713439055787	3575.604636502492	843.526685740592	857.8138373948955	3574.5336845214106	844.5187112989124	1237.0248751236072	3672.9650256240775	851.6849847930679	1308.3614407312407	3545.3090844857456	806.5656695434753	1297.9704384000001	3537.5401329370234	843.8913630132147	1280.0361215350247	3712.804697497757	858.502461175802	-120.15838969822715	3564.368231562274	749.196560724806	-372.16209297459795	3497.575755758797	739.1143087900754	-231.40304574540312	3444.887473520588	718.5372964293849	-38.75226180278124	3698.392740126379	630.411000037855	177.66638967639727	3745.231336256581	543.8181286576082	271.1733745544354	3483.802052555794	495.9805389773678	321.13982687281384	3368.36503774888	556.7187557698774	334.7265332478795	3357.6371836887747	549.3522558859247	375.01166306415234	3424.396589158004	505.58861168082865	-16.236720149126512	3504.1261359185164	897.9941936423118	246.9072119858869	3526.8536829139866	954.572320163541	500.7081098298828	3522.3451789267788	958.429489356547	602.9723984390116	3502.933485268437	905.5803583144151	610.1095890430583	3420.608300287213	897.6579649500682	609.9961884905881	3409.1220667360158	931.513202011665
189	3.15	445.3636091189725	3627.1358091074185	646.5417628770884	844.0138390047725	3689.8627995613183	650.6105581051027	1223.9686148686433	3747.6756750070876	706.234222276249	1281.8925227732548	3620.222875145627	642.6115626900934	1279.2113830531841	3668.47128694978	601.8037686904481	1291.8429669599068	3813.227038963722	758.9354242134548	481.21978192517827	3581.9737860449773	844.193962563216	856.7387691747612	3574.47121714324	844.7208045765803	1237.0104176629638	3673.006218247108	851.7076397012995	1308.3069743105139	3545.194141517768	806.5048956109532	1297.9622438956262	3537.521155731318	843.9896480752645	1279.2946991795236	3713.4100010117313	858.9777448419734	-120.20768947067936	3567.793140409349	749.2524762165162	-372.54885091717483	3502.790247825524	740.6905174902118	-231.41438125792982	3444.9789725609044	718.6459801071628	-37.166221780146955	3698.4230304852567	630.2250733473367	177.06632892762983	3748.5054926657695	542.7958039784501	265.0465268768122	3481.1557259765164	497.45253832430745	311.1602634987305	3367.7828906521772	559.942430161194	323.18665767935425	3351.4002014726334	551.5858336836351	364.2170042331571	3409.516364024742	512.8009389951776	-17.03758761365706	3507.2299286119983	899.6220045719181	246.3950590838819	3526.351524049633	954.2655697005005	500.74911418995487	3523.3920598851705	958.0182891566226	604.8143698504978	3511.4690631449107	910.981374073877	611.261012667879	3426.5372500783596	900.1407182109552	610.0499406692368	3409.36326000569	931.6776915063297
190	3.1666666666666665	444.5876065926417	3628.5559390983963	647.2268937883597	842.501605007393	3689.5883161718357	651.7009371763106	1223.612173324019	3747.426755555128	706.034345162686	1283.1791529740367	3622.98914358545	644.7766015783462	1279.6132791115447	3668.3624734066184	601.8003296101266	1292.9084383735271	3812.2256112731075	759.87484678772	480.3423095182112	3587.037436557625	845.2274653605273	856.790799015145	3574.2715496134283	844.8297158116945	1236.9852493233932	3673.0529448800767	851.7188793788812	1308.5078008730754	3544.117035452923	805.9381317075859	1297.3948019217578	3537.283407470469	843.8717407145238	1279.3115339339897	3714.1539422289966	859.3248631915318	-120.165226289015	3567.9716918598406	748.9712584508239	-372.67866213037894	3505.126184126806	741.3687141731664	-231.43034225310686	3445.0596557088684	718.6956657381514	-35.35893372935212	3698.484615112808	630.2328167292512	176.78983049629986	3755.107549721609	542.9222565265304	258.21584560782287	3475.2296636681604	499.52922923729903	304.17649299772154	3369.8024612186573	565.0630532961213	316.2670288118447	3350.2658205906964	556.5023395542146	354.14312908250116	3398.349802422392	522.7070714901288	-17.87429458409793	3507.96820463242	900.0855169684625	246.18929643290522	3526.157262981919	954.1318499376109	500.65212406890606	3523.4386672155842	957.0765742667173	604.7128407029492	3514.612712230617	913.9568680286784	611.6593566384113	3428.798608384697	901.1454311014404	610.0262295983857	3409.2446004576814	931.2039974772108
